# xmcd
#
# Track frame offsets:
#	150
#	11488
#	23271
#	33668
#	45194
#	57929
#	69709
#	82401
#	95604
#	108364
#	119578
#	132540
#	142625
#	153901
#	165370
#	177081
#	188084
#	199145
#	211068
#	223591
#
# Disc length: 3091 seconds
#
# Revision: 1
# Processed by: cddbd v1.5.2PL0 Copyright (c) Steve Scherf et al.
# Submitted via: audiograbber 1.83.01
#
DISCID=0c0c1114
DTITLE=Kitty Wells - Makin' Believe
DYEAR=2006
DGENRE=Country
TTITLE0=It Wasn't God Who Made Honky Tonk Angels
TTITLE1=Paying For That Back Street Affair
TTITLE2=A Wedding Ring Ago
TTITLE3=Hey Joe
TTITLE4=Cheatin's A Sin
TTITLE5=I Gave My Wedding Dress Away
TTITLE6=Release Me
TTITLE7=One By One (with Red Foley)
TTITLE8=I'm A Stranger In My Home (with Red Foley)
TTITLE9=Thou Salt Not Steal
TTITLE10=Makin' Believe
TTITLE11=Whose Shoulder Will You Cry On
TTITLE12=Make Believe (Til We Can Make It Come True) (with Red Foley)
TTITLE13=As Long As I Live
TTITLE14=There's Poison In Your Heart
TTITLE15=I'm In Love With You
TTITLE16=I've Kissed You My Last Time
TTITLE17=Lonely Side Of Town
TTITLE18=You And Me (with Red Foley)
TTITLE19=No One But You (with Red Foley)
EXTD=20 Greatest Hits
EXTT0=
EXTT1=
EXTT2=
EXTT3=
EXTT4=
EXTT5=
EXTT6=
EXTT7=
EXTT8=
EXTT9=
EXTT10=
EXTT11=
EXTT12=
EXTT13=
EXTT14=
EXTT15=
EXTT16=
EXTT17=
EXTT18=
EXTT19=
PLAYORDER=
